<?xml version="1.0" standalone="no"?>
<!DOCTYPE svg PUBLIC "-//W3C//DTD SVG 20010904//EN"
 "http://www.w3.org/TR/2001/REC-SVG-20010904/DTD/svg10.dtd">
<svg version="1.0" xmlns="http://www.w3.org/2000/svg"
 width="700.000000pt" height="700.000000pt" viewBox="0 0 700.000000 700.000000"
 preserveAspectRatio="xMidYMid meet">
<metadata>
Created by potrace 1.11, written by Peter Selinger 2001-2013
</metadata>
<g transform="translate(0.000000,700.000000) scale(0.100000,-0.100000)"
fill="#000000" stroke="none">
<path d="M2787 6213 c-21 -36 -834 -1445 -847 -1468 -62 -109 -151 -262 -160
-275 -6 -8 -13 -22 -17 -30 -4 -8 -49 -86 -100 -173 -51 -88 -93 -161 -93
-163 0 -2 -16 -28 -35 -58 -19 -30 -35 -57 -35 -59 0 -2 -39 -71 -86 -153 -48
-82 -95 -164 -106 -182 -10 -18 -58 -102 -107 -185 -48 -84 -99 -172 -113
-197 -14 -25 -34 -61 -45 -80 -11 -19 -36 -62 -55 -95 -19 -33 -169 -292 -333
-575 -164 -283 -305 -528 -315 -545 -134 -234 -246 -426 -262 -453 l-20 -32
916 2 915 3 -14 -22 c-8 -12 -23 -37 -33 -55 -19 -33 -144 -250 -286 -496 -43
-74 -75 -137 -71 -140 6 -6 3589 -10 3618 -4 15 4 64 80 149 232 14 25 66 115
115 200 50 85 141 243 203 350 62 107 136 236 165 285 29 50 63 108 75 130 41
73 91 159 136 235 24 41 53 93 65 115 11 22 28 52 37 67 21 32 70 118 308 528
100 173 190 329 200 347 11 18 53 92 95 165 42 73 124 216 183 317 58 101 106
184 106 185 0 0 -411 1 -914 1 -814 -1 -915 1 -920 15 -3 8 -13 29 -23 45 -59
99 -103 176 -103 182 0 3 -6 14 -14 22 -7 9 -29 46 -49 82 -20 37 -61 108 -92
159 -30 51 -55 94 -55 95 0 2 -41 74 -92 162 -50 87 -99 172 -108 188 -82 143
-272 473 -280 485 -5 8 -26 43 -46 78 -19 35 -37 62 -39 60 -2 -2 -85 -145
-185 -318 -100 -173 -211 -366 -247 -428 -36 -62 -69 -110 -73 -105 -6 6 -523
901 -598 1033 -10 19 -52 91 -92 160 -40 68 -81 138 -90 155 -77 137 -123 215
-126 215 -1 0 -5 -3 -7 -7z m1428 -3853 c-3 -5 -12 -10 -18 -10 -7 0 -6 4 3
10 19 12 23 12 15 0z"/>
</g>
</svg>
